<svg id="visual" viewBox="0 0 1920 520" width="1920" height="520" xmlns="http://www.w3.org/2000/svg" xmlns:xlink="http://www.w3.org/1999/xlink" version="1.1"><rect x="0" y="0" width="1920" height="520" fill="#F2F2F2"></rect><g transform="translate(17.7817112328529 99.15129965405683)"><path d="M222 -445.4C280 -351.1 314.1 -276 364.3 -205C414.4 -134 480.7 -67 535.1 31.4C589.5 129.8 632.1 259.7 585.7 337.2C539.3 414.7 403.9 439.9 291.4 456.1C179 472.4 89.5 479.7 20.3 444.6C-49 409.5 -98 332.1 -112.1 259C-126.1 186 -105.3 117.4 -187.6 74.9C-270 32.5 -455.5 16.3 -554 -56.9C-652.5 -130 -664 -260 -605.8 -344.3C-547.7 -428.6 -419.8 -467.2 -307.2 -530C-194.7 -592.8 -97.3 -679.9 -7.7 -666.6C82 -653.4 164 -539.7 222 -445.4" fill="#D9D0C1"></path></g></svg>