<svg id="visual" viewBox="0 0 1920 520" width="1920" height="520" xmlns="http://www.w3.org/2000/svg" xmlns:xlink="http://www.w3.org/1999/xlink" version="1.1"><rect x="0" y="0" width="1920" height="520" fill="#F2F2F2"></rect><g transform="translate(-134.55000441471543 -88.2284391782618)"><path d="M267.7 -397.1C360.3 -410.1 458.2 -365.6 544.4 -289.8C630.7 -214 705.3 -107 722.6 10C740 127 699.9 254 622.3 344.6C544.6 435.3 429.3 489.6 319.3 529.6C209.3 569.6 104.7 595.3 22.2 556.9C-60.3 518.5 -120.7 416 -206.5 362.1C-292.4 308.2 -403.9 302.8 -441.5 250.6C-479.2 198.3 -443.1 99.2 -407.9 20.3C-372.7 -58.5 -338.3 -117 -278.6 -131.1C-218.9 -145.1 -133.8 -114.8 -83.2 -126C-32.5 -137.3 -16.3 -190.1 35.6 -251.9C87.5 -313.6 175 -384.1 267.7 -397.1" fill="#D9D0C1"></path></g></svg>