<svg id="visual" viewBox="0 0 1600 700" width="1600" height="700" xmlns="http://www.w3.org/2000/svg" xmlns:xlink="http://www.w3.org/1999/xlink" version="1.1"><rect x="0" y="0" width="1600" height="700" fill="#F2F2F2"></rect><defs><linearGradient id="grad1_0" x1="56.3%" y1="0%" x2="100%" y2="100%"><stop offset="4.285714285714288%" stop-color="#f2f2f2" stop-opacity="1"></stop><stop offset="95.71428571428572%" stop-color="#f2f2f2" stop-opacity="1"></stop></linearGradient></defs><defs><linearGradient id="grad2_0" x1="0%" y1="0%" x2="43.8%" y2="100%"><stop offset="4.285714285714288%" stop-color="#f2f2f2" stop-opacity="1"></stop><stop offset="95.71428571428572%" stop-color="#f2f2f2" stop-opacity="1"></stop></linearGradient></defs><g transform="translate(1600, 0)"><path d="M0 560C-59.8 549.7 -119.6 539.4 -166.6 512.6C-213.5 485.8 -247.7 442.6 -300.9 414.2C-354.2 385.9 -426.5 372.4 -453 329.2C-479.6 285.9 -460.6 212.8 -470.8 153C-481 93.1 -520.5 46.6 -560 0L0 0Z" fill="#E7E6E1"></path></g><g transform="translate(0, 700)"><path d="M0 -560C50 -531.5 100 -503 159.8 -491.7C219.5 -480.4 288.9 -486.3 329.2 -453C369.4 -419.8 380.3 -347.6 405.3 -294.5C430.3 -241.4 469.3 -207.5 497.4 -161.6C525.5 -115.7 542.8 -57.9 560 0L0 0Z" fill="#E7E6E1"></path></g></svg>