<svg id="visual" viewBox="0 0 1920 520" width="1920" height="520" xmlns="http://www.w3.org/2000/svg" xmlns:xlink="http://www.w3.org/1999/xlink" version="1.1"><rect x="0" y="0" width="1920" height="520" fill="#F2F2F2"></rect><g transform="translate(-89.07434188044647 -46.40336871521043)"><path d="M376 -627C504.1 -577.4 636.1 -510.4 725.8 -403.1C815.4 -295.7 862.7 -147.8 856.9 -3.3C851.2 141.2 792.3 282.3 686.5 361.7C580.7 441.1 427.8 458.7 305.6 524C183.3 589.2 91.7 702.1 -28.4 751.3C-148.5 800.5 -297 786.1 -372.5 693.8C-448 601.6 -450.5 431.5 -499.5 302.9C-548.6 174.3 -644.3 87.2 -671.2 -15.5C-698 -118.2 -656 -236.3 -570.6 -302C-485.2 -367.7 -356.3 -380.9 -254 -445.3C-151.7 -509.7 -75.8 -625.4 24.1 -667.1C124 -708.8 248 -676.5 376 -627" fill="#D9D0C1"></path></g></svg>