<svg id="visual" viewBox="0 0 1920 520" width="1920" height="520" xmlns="http://www.w3.org/2000/svg" xmlns:xlink="http://www.w3.org/1999/xlink" version="1.1"><rect x="0" y="0" width="1920" height="520" fill="#F2F2F2"></rect><g transform="translate(-69.46845919981558 16.197545106677353)"><path d="M246.9 -492.5C306 -346.2 330.4 -254.1 442.3 -158.2C554.2 -62.3 753.7 37.4 761.4 122.2C769 207.1 584.8 277.1 459.4 368.2C334 459.4 267.4 571.8 153.1 676.1C38.7 780.4 -123.5 876.7 -280.4 869.6C-437.3 862.5 -589 752.2 -617.4 600.9C-645.9 449.7 -551.1 257.7 -527.2 105.2C-503.4 -47.2 -550.5 -160.1 -553.5 -294C-556.5 -427.9 -515.3 -582.8 -415.7 -710.7C-316.1 -838.5 -158 -939.3 -32.1 -889.3C93.9 -839.4 187.8 -638.9 246.9 -492.5" fill="#D9D0C1"></path></g></svg>