<svg id="visual" viewBox="0 0 1920 520" width="1920" height="520" xmlns="http://www.w3.org/2000/svg" xmlns:xlink="http://www.w3.org/1999/xlink" version="1.1"><rect x="0" y="0" width="1920" height="520" fill="#F2F2F2"></rect><g transform="translate(20.117996822089935 153.31788074647943)"><path d="M316.6 -523.7C439 -414 586.5 -374.6 703.1 -275.3C819.7 -176 905.2 -16.8 832 81.7C758.8 180.1 526.8 217.8 381.3 260.9C235.8 304 176.8 352.5 99.7 405.1C22.6 457.7 -72.5 514.3 -183.3 526.5C-294.1 538.6 -420.7 506.4 -564.3 435.9C-707.9 365.4 -868.7 256.7 -895.3 123.9C-921.9 -8.9 -814.3 -165.8 -704.5 -286.6C-594.6 -407.3 -482.5 -491.8 -364.7 -603.5C-246.9 -715.2 -123.4 -854.1 -13.2 -833.6C97.1 -813.1 194.3 -633.3 316.6 -523.7" fill="#D9D0C1"></path></g></svg>