<svg id="visual" viewBox="0 0 1920 520" width="1920" height="520" xmlns="http://www.w3.org/2000/svg" xmlns:xlink="http://www.w3.org/1999/xlink" version="1.1"><rect x="0" y="0" width="1920" height="520" fill="#F2F2F2"></rect><g transform="translate(5.684341886080802e-14 0.13750000000004547)"><path d="M499.2 -776.8C647 -681.8 767 -543.4 840 -383.6C913 -223.8 939 -42.5 914 131.4C889 305.3 812.9 471.9 697.9 604.7C582.8 737.5 428.7 836.5 260.2 886C91.6 935.5 -91.6 935.5 -260.2 886C-428.7 836.5 -582.8 737.5 -697.9 604.7C-812.9 471.9 -889 305.3 -914 131.4C-939 -42.5 -913 -223.8 -840 -383.6C-767 -543.4 -647 -681.8 -499.2 -776.8C-351.4 -871.8 -175.7 -923.4 0 -923.4C175.7 -923.4 351.4 -871.8 499.2 -776.8" fill="#D9D0C1"></path></g></svg>