<svg id="visual" viewBox="0 0 1920 520" width="1920" height="520" xmlns="http://www.w3.org/2000/svg" xmlns:xlink="http://www.w3.org/1999/xlink" version="1.1"><rect x="0" y="0" width="1920" height="520" fill="#F2F2F2"></rect><g transform="translate(-107.82878384645943 90.70170623717723)"><path d="M379.7 -765.5C436.4 -625 388.4 -410.7 469.6 -270.9C550.9 -131 761.4 -65.5 844.2 47.7C926.9 161 881.7 322 757.9 388.1C634.1 454.2 431.5 425.4 292.1 503.9C152.7 582.4 76.3 768.2 3.6 762C-69.2 755.8 -138.3 557.6 -280.1 480.4C-421.8 403.3 -636.1 447.1 -666.5 387.2C-697 327.3 -543.5 163.7 -519.2 14C-495 -135.7 -600 -271.3 -591.5 -369.3C-583.1 -467.3 -461.3 -527.7 -343.8 -633.2C-226.3 -738.7 -113.2 -889.3 24.2 -931.2C161.5 -973.1 323 -906.1 379.7 -765.5" fill="#D9D0C1"></path></g></svg>