<svg id="visual" viewBox="0 0 1600 700" width="1600" height="700" xmlns="http://www.w3.org/2000/svg" xmlns:xlink="http://www.w3.org/1999/xlink" version="1.1"><rect x="0" y="0" width="1600" height="700" fill="#f2f2f2"></rect><g transform="translate(1507.5605715117772 -4.299154192913932)"><path d="M428.7 -610.5C505.1 -534.5 481.7 -341.7 533.5 -175.1C585.2 -8.4 712 132.1 750.8 315.4C789.6 498.8 740.4 725.1 600.6 828.5C460.8 931.9 230.4 912.5 57.6 833.2C-115.2 753.9 -230.4 614.8 -284.5 483.5C-338.5 352.3 -331.4 228.8 -301.6 140.5C-271.7 52.2 -219.1 -0.9 -302.2 -207.3C-385.3 -413.6 -604.1 -773.1 -576.3 -864.9C-548.6 -956.7 -274.3 -780.9 -49.1 -713.3C176.1 -645.8 352.3 -686.5 428.7 -610.5" fill="#E7E6E1"></path></g></svg>