<svg id="visual" viewBox="0 0 1920 520" width="1920" height="520" xmlns="http://www.w3.org/2000/svg" xmlns:xlink="http://www.w3.org/1999/xlink" version="1.1"><rect x="0" y="0" width="1920" height="520" fill="#F2F2F2"></rect><g transform="translate(-13.92796669746997 -45.8715267508947)"><path d="M75.8 -211.3C119.1 -106.3 189.5 -128.1 285.8 -114.1C382.2 -100 504.6 -50 561.5 32.8C618.3 115.7 609.7 231.3 556.5 320.2C503.3 409.2 405.7 471.3 305.5 534.1C205.3 597 102.7 660.5 4.9 652C-92.8 643.5 -185.7 562.9 -217.4 460.6C-249.2 358.3 -219.9 234.1 -274.4 153.7C-329 73.3 -467.5 36.7 -531.5 -36.9C-595.4 -110.5 -584.8 -221 -499 -247.4C-413.3 -273.8 -252.4 -216.2 -156.7 -290.9C-61 -365.7 -30.5 -572.8 -7.1 -560.5C16.3 -548.1 32.5 -316.3 75.8 -211.3" fill="#D9D0C1"></path></g></svg>